<?xml version="1.0" standalone="no"?>
<!DOCTYPE svg PUBLIC "-//W3C//DTD SVG 20010904//EN"
 "http://www.w3.org/TR/2001/REC-SVG-20010904/DTD/svg10.dtd">
<svg version="1.0" xmlns="http://www.w3.org/2000/svg"
 width="256.000000pt" height="256.000000pt" viewBox="0 0 256.000000 256.000000"
 preserveAspectRatio="xMidYMid meet">
<metadata>
Created by potrace 1.15, written by Peter Selinger 2001-2017
</metadata>
<g transform="translate(0.000000,256.000000) scale(0.100000,-0.100000)"
fill="#000000" stroke="none">
<path d="M1233 1429 c-43 -8 -106 -43 -135 -75 -56 -63 -74 -183 -39 -259 21
-46 69 -98 115 -123 43 -23 169 -23 212 0 82 45 133 128 134 218 0 154 -135
267 -287 239z m107 -124 l0 -55 55 0 55 0 0 -60 0 -60 -55 0 -55 0 0 -55 0
-55 -60 0 -60 0 0 55 0 55 -55 0 -55 0 0 60 0 60 55 0 55 0 0 55 0 55 60 0 60
0 0 -55z"/>
</g>
</svg>
